<svg xmlns="http://www.w3.org/2000/svg" viewBox="0 0 448 512">
<path d="M380.9 97.1C339-3.9 231-33.7 139.5 15.2 48 64 10.7 171.1 51.6 271.8l-34.8 127 130.1-34.2c101.6 54.7 225.4 19.3 276.8-82.4 51.3-101.7 13.9-226.9-43.8-285.1zM224 413.3c-33.9 0-67.1-9-96-26.1l-6.8-4-77.1 20.2 20.6-75.1-4.4-7c-28.9-46.1-32.2-104.5-8.6-154.1 23.6-49.6 70.4-85.3 124.9-96.1 54.6-10.9 110.8 3.5 152.5 39.5 41.7 36.2 65.9 89 65.9 144.6 0 105.3-85.9 190.1-191 190.1zm101.1-138.1c-5.5-2.7-32.7-16.2-37.7-18s-8.7-2.7-12.4 2.7-14.2 18-17.5 21.8-6.4 4.1-11.9 1.4-23.1-8.5-44-27-32.4-38.6-36.1-45-7.6-4.1-11.9-1.4c-4.4 2.7-16.2 11.5-16.2 27s11.5 31.9 13.2 34.6 22.7 36.5 55.1 51.1 32.7 8.7 46.5 7.1 22.7-11.5 25.9-18.1 3.3-11.5 2.3-12.9-5.5-4.3-11-7z"/></svg>